<svg xmlns="http://www.w3.org/2000/svg" viewBox="0 0 1119 682"><defs><style>.cls-1{fill:#b7b7b7;}.cls-2{opacity:0.24;}.cls-3{fill:#6075f2;}.cls-4{opacity:0.51;}.cls-5{opacity:0.78;}</style></defs><g id="dots"><path class="cls-1" d="M1035.72,481.85c.15-1.49.54-5.43-1.84-7.87s-6.5-2.14-7.53-2.08c-11.56.68-281.36.86-292.43.06-.89-.07-4.69-.47-6.95,1.83-2,2.06-1.84,5.32-1.74,6.74,1.72,23.82-1.49,47.84.32,71.66.12,1.59.34,5.13-1.86,7.29s-5.87,1.86-7.33,1.73L665.78,561s-1,17,.43,18c1.06.78,2,.08,2.86.1,146,2.88,292.54-12,438,.28,1.29.11,6.17.64,9.09-2.29s2.32-8.27,2.21-9.31c-1.71-17-1.72-539.3,0-555.62.1-1,.81-6-2.11-9s-7.86-2.34-8.64-2.28C1093,2,26.18,2,11.58.91,10.8.85,5.82.25,2.91,3.21s-2.24,7.94-2.13,9C2.61,30.39,4.79,550,1,567.83c-.18.82-1.53,6,1.13,8.91,2.2,2.43,6.11,2.15,6.87,2.13,8.17-.26,491.51,1.86,492.53-.34l.3-17.58-79.7.24c-1.21.09-4.52.34-6.49-1.7s-1.62-5-1.51-6.37c1-11.74-.28-23.57.34-35.34.18-3.47.31-6.68-1.8-9-3-3.28-8.64-2.58-9.77-2.48C393,507.2,238,506,20.78,504L18.36,150.19c.65-33.44.81-57.35-.05-66-.15-1.43-.67-6,2-8.73,1.67-1.71,4.5-2.3,9-2.29q190.32.45,380.65.21a59.68,59.68,0,0,1,6.69,0c5.41.61,7.32-1.58,7.13-7-.34-10.19-.09-20.4-.09-30.6,0-17.14,19.63-16.37,19.63-16.37l219.36-.09q43,.3,86.05,0c5.52,0,7,1.93,7,7.21q-.24,63.59,0,127.16c0,5.82-1.72,7.64-7.58,7.58-28.36-.26-56.73-.34-85.09.05-6.81.09-7.7-2.62-7.63-8.37.27-21.35.12-42.7.09-64.05,0-4.55,1.48-11.24-5-11.24-7.37,0-4.28,11.29-4.28,11.29.18,39.53.18,67.87-.36,74-.08,1-.44,4.33,1.58,6.33,1.83,1.82,4.75,1.61,5.66,1.56,8.05-.41,98-.6,106.13,0,.83.06,3.7.32,5.35-1.43,1.45-1.52,1.28-3.85,1.2-5-.59-8.26-.11-16.56-.26-24.84-.05-2.81,0-5,1.38-7,2.07-2.94,5.8-3.63,7.31-3.89,121.35-20.79,172.38-18.07,172.38-18.07,62.45,3.33,50.49,8,86.26,8.94,20.09.53,39.18,9,58.83,13.16,1.19.25,4.8,1,6.84,4s1.46,6.52,1.38,7.22c-1.46,12.5-.61,401.12,0,410.34,0,.62.33,3.63-1.51,5.45s-4.67,1.52-5.71,1.44c-7.73-.57-39.17-.63-48.74.05-1.31.09-4.65.37-6.74-1.68s-1.87-5.61-1.76-7m33.31-223.06,0,0M983.15,482.11c12.62,0,22.68.4,32.7-.14,7.31-.39,10.06,1.62,9.84,9.47q-.82,30.09,0,60.23c.19,7.56-2.07,9.62-9.58,9.55-38.65-.36-77.31-.17-116-.17-52.28,0-104.56-.09-156.84.13-6.29,0-8.15-1.85-8-8.09.36-20.4.53-40.81,0-61.2-.24-8.21,2.55-10,10.28-9.95,72.36.28,144.73.16,217.09.19M765.73,70.88c0-14.63.1-29.26-.06-43.89-.06-4.79.63-7.71,6.59-7.63,21,.27,42,.18,63,0,4.32,0,6.31,1.17,6.28,5.89q-.22,37.68,0,75.37c0,4.94-2.1,6.51-6.68,7.12a461.54,461.54,0,0,0-60.69,12.11c-7.57,2.06-8.68-.43-8.52-7C766,98.88,765.72,84.88,765.73,70.88Zm334.07-.53c0,15.3-.3,30.6.13,45.88.2,7.17-2.53,7.94-8.49,6.19a456.81,456.81,0,0,0-57.8-12.67c-5.07-.79-6.93-2.76-6.92-8,0-24.85-.08-49.71-.62-74.56-.14-6.58,2.39-7.94,8.32-7.85,19.12.29,38.25.32,57.36,0,6.15-.11,8.35,1.64,8.16,8C1099.51,41.67,1099.8,56,1099.8,70.35Zm-83.59-7.88h1c0,12.09-.32,24.2.12,36.27.25,6.55-1.94,8.2-8.23,7.25-21.09-3.2-42.39-4.16-63.67-5.09-5-.22-7.35-1.6-7.28-7.22.27-22.59.22-45.18,0-67.77,0-5,1.74-6.58,6.66-6.53,21.32.2,42.64.27,64,0,6-.08,7.6,2.26,7.46,7.83C1016,38.93,1016.21,50.71,1016.21,62.47ZM851,61.55c0-11.79.16-23.59-.08-35.37-.1-4.78,1.2-6.86,6.4-6.81q32.5.33,65,0c5.08,0,6.54,1.84,6.5,6.72q-.29,33.94,0,67.89c0,5-1.83,6.42-6.69,6.65-21,1-42,2.2-62.93,3.85-6.3.49-8.57-1.06-8.35-7.55C851.29,85.15,851,73.35,851,61.55ZM341.78,63.87c-22.28,0-44.55-.15-66.82.11-5.67.07-8-1.41-7.7-7.45.44-10.16.32-20.36,0-30.53-.14-5,1.56-6.64,6.55-6.62q66.82.21,133.65,0c5.81,0,6.86,2.44,6.72,7.44-.27,9.86-.37,19.74,0,29.58.24,5.84-1.7,7.7-7.56,7.62C385.06,63.69,363.42,63.87,341.78,63.87Zm-250,497.18c-21.66,0-43.33-.27-65,.16-6.85.14-8.78-2-8.41-8.61.54-9.53.33-19.11.06-28.66-.13-5,.89-7.51,6.71-7.48q66,.28,131.91,0c5.62,0,7,2.08,6.88,7.27-.3,10.18-.38,20.4,0,30.58.23,5.66-2,6.9-7.19,6.84C135.11,560.92,113.45,561.05,91.78,561.05ZM82.49,63.87c-18.8,0-37.6-.18-56.4.11-5.64.09-8-1.34-7.69-7.41.46-10.18.34-20.4,0-30.58-.14-5,1.5-6.64,6.52-6.61q57.36.23,114.71,0c5.78,0,6.9,2.37,6.75,7.41-.28,9.87-.38,19.76,0,29.62.25,5.86-1.7,7.71-7.57,7.61C120.09,63.67,101.29,63.87,82.49,63.87ZM347.6,561.05c-16.88,0-33.77-.15-50.66.1-5.14.07-7.5-1.13-7.28-6.83.4-10.18.32-20.39,0-30.58-.15-5.22,1.4-7.31,7-7.28q50.65.3,101.32,0c5.79,0,6.9,2.47,6.76,7.48-.26,9.87-.39,19.76.05,29.62.25,5.82-1.5,7.76-7.48,7.62C380.75,560.81,364.17,561.05,347.6,561.05ZM206.84,63.87c-14.65,0-29.31-.19-44,.1-5.36.11-7.3-1.59-7.12-7,.36-10.18.24-20.38,0-30.57-.09-4.49.71-7,6.15-7q44.9.3,89.81,0c4.48,0,6.21,1.48,6.12,6-.23,10.5-.32,21,0,31.52.19,5.5-1.82,7.11-7.14,7C236.14,63.68,221.49,63.87,206.84,63.87Zm20,497.18c-15.57,0-31.15-.11-46.73.07-4.53.06-7-.69-6.86-6.14.37-10.79.27-21.61,0-32.41-.09-4.54,1.55-6.09,6.07-6.07q47.21.19,94.42,0c5.08,0,6.59,2,6.47,6.77-.24,10.49-.3,21,0,31.47.16,5.17-1.91,6.47-6.7,6.4C258.05,560.91,242.47,561.05,226.89,561.05Z"/><path class="cls-1" d="M499.3,681.18l.19-102h4l-.18,97a117.69,117.69,0,0,0,37.85-17.59c26.5-18.86,39.93-45.91,39.92-80.42h4c0,44.77-22.68,70.27-41.72,83.78a117.11,117.11,0,0,1-41.68,18.72Z"/><path class="cls-1" d="M667.74,681.18l-2.38-.45A117.11,117.11,0,0,1,623.68,662c-19-13.51-41.74-39-41.72-83.78h4c0,34.51,13.42,61.56,39.91,80.42a117.8,117.8,0,0,0,37.86,17.59l-.18-97h4Z"/><path class="cls-1" d="M667.52,580.21h-168v-19h168Zm-164-4h160v-11h-160Z"/><path class="cls-1" d="M528.16,214.9H125.68a9.76,9.76,0,0,1-9.76-9.75V182.66a9.77,9.77,0,0,1,9.76-9.76H528.16a9.77,9.77,0,0,1,9.76,9.76v22.49A9.76,9.76,0,0,1,528.16,214.9Zm-402.48-33a.76.76,0,0,0-.76.76v22.49a.76.76,0,0,0,.76.75H528.16a.76.76,0,0,0,.76-.75V182.66a.76.76,0,0,0-.76-.76Z"/><path class="cls-1" d="M627.66,171.4H573.18a9.76,9.76,0,0,1-9.76-9.75V107.16a9.77,9.77,0,0,1,9.76-9.76h54.48a9.77,9.77,0,0,1,9.76,9.76v54.49A9.76,9.76,0,0,1,627.66,171.4Zm-54.48-65a.76.76,0,0,0-.76.76v54.49a.76.76,0,0,0,.76.75h54.48a.76.76,0,0,0,.76-.75V107.16a.76.76,0,0,0-.76-.76Z"/><path class="cls-1" d="M997.66,422.4H943.18a9.76,9.76,0,0,1-9.76-9.75V191.16a9.77,9.77,0,0,1,9.76-9.76h54.48a9.77,9.77,0,0,1,9.76,9.76V412.65A9.76,9.76,0,0,1,997.66,422.4Zm-54.48-232a.76.76,0,0,0-.76.76V412.65a.76.76,0,0,0,.76.75h54.48a.76.76,0,0,0,.76-.75V191.16a.76.76,0,0,0-.76-.76Z"/><path class="cls-1" d="M528.16,350.9H125.68a9.76,9.76,0,0,1-9.76-9.75V318.66a9.77,9.77,0,0,1,9.76-9.76H528.16a9.77,9.77,0,0,1,9.76,9.76v22.49A9.76,9.76,0,0,1,528.16,350.9Zm-402.48-33a.76.76,0,0,0-.76.76v22.49a.76.76,0,0,0,.76.75H528.16a.76.76,0,0,0,.76-.75V318.66a.76.76,0,0,0-.76-.76Z"/><path class="cls-1" d="M528.66,475.4H126.18a9.76,9.76,0,0,1-9.76-9.75V443.16a9.77,9.77,0,0,1,9.76-9.76H528.66a9.77,9.77,0,0,1,9.76,9.76v22.49A9.76,9.76,0,0,1,528.66,475.4Zm-402.48-33a.76.76,0,0,0-.76.76v22.49a.76.76,0,0,0,.76.75H528.66a.76.76,0,0,0,.76-.75V443.16a.76.76,0,0,0-.76-.76Z"/><path class="cls-1" d="M127.73,138.8h-2.67L124,136h-4.86l-1,2.76h-2.6l4.74-12.17h2.6ZM123.2,134l-1.67-4.52L119.88,134Z"/><path class="cls-1" d="M129.06,138.8V126.63h2.39l5,8.13v-8.13h2.28V138.8h-2.46l-4.91-7.93v7.93Z"/><path class="cls-1" d="M152.28,138.8h-2.67L148.55,136h-4.87l-1,2.76h-2.61l4.74-12.17h2.6ZM147.76,134l-1.68-4.52L144.44,134Z"/><path class="cls-1" d="M163.38,137.26a8.21,8.21,0,0,0,2,1l-.91,1.73a5.39,5.39,0,0,1-1.09-.46c-.07,0-.62-.39-1.63-1.07a6.7,6.7,0,0,1-2.65.52,5.81,5.81,0,0,1-4.39-1.65,7.57,7.57,0,0,1,0-9.28,6.43,6.43,0,0,1,8.62,0,6.46,6.46,0,0,1,1.58,4.64,7.86,7.86,0,0,1-.44,2.77A5.67,5.67,0,0,1,163.38,137.26Zm-2-1.39a3.52,3.52,0,0,0,.71-1.34,6.25,6.25,0,0,0,.24-1.81,4.59,4.59,0,0,0-.93-3.15,3.35,3.35,0,0,0-4.87,0,4.63,4.63,0,0,0-.93,3.15,4.73,4.73,0,0,0,.93,3.19,3,3,0,0,0,2.36,1.06,2.83,2.83,0,0,0,1-.18,7.44,7.44,0,0,0-1.52-.76l.69-1.4A8.1,8.1,0,0,1,161.4,135.87Z"/><path class="cls-1" d="M166.79,126.63h2.46v6.59a13.94,13.94,0,0,0,.09,2,2,2,0,0,0,.75,1.2,2.64,2.64,0,0,0,1.62.45,2.44,2.44,0,0,0,1.58-.43,1.63,1.63,0,0,0,.64-1,13.82,13.82,0,0,0,.11-2.07v-6.73h2.46V133a16.68,16.68,0,0,1-.2,3.1,3.53,3.53,0,0,1-.74,1.53,3.8,3.8,0,0,1-1.43,1,6.37,6.37,0,0,1-2.34.37,7,7,0,0,1-2.65-.4,3.79,3.79,0,0,1-1.42-1.05,3.34,3.34,0,0,1-.69-1.35,14.87,14.87,0,0,1-.24-3.09Z"/><path class="cls-1" d="M179.08,138.8V126.63h9v2.06h-6.57v2.7h6.11v2.05h-6.11v3.31h6.8v2.05Z"/><path class="cls-1" d="M190.49,138.8V126.73H193v10h6.11v2.05Z"/><path class="cls-1" d="M116.75,159.2V147h9v2.06h-6.57v2.7h6.11v2.05h-6.11v3.31H126v2Z"/><path class="cls-1" d="M128.16,159.2V147.13h2.46v10h6.11v2Z"/><path class="cls-1" d="M138.48,159.2V147h9v2.06h-6.57v2.7H147v2.05h-6.11v3.31h6.8v2Z"/><path class="cls-1" d="M157.6,154.73l2.39.75a5.35,5.35,0,0,1-1.83,3,5.71,5.71,0,0,1-7.21-.69,6.33,6.33,0,0,1-1.57-4.53,6.66,6.66,0,0,1,1.57-4.71,5.36,5.36,0,0,1,4.13-1.69,5.07,5.07,0,0,1,3.63,1.32,4.91,4.91,0,0,1,1.24,2.25l-2.43.58a2.57,2.57,0,0,0-.9-1.5,2.61,2.61,0,0,0-1.67-.54,2.75,2.75,0,0,0-2.19,1,4.74,4.74,0,0,0-.84,3.14,5.06,5.06,0,0,0,.83,3.29,2.7,2.7,0,0,0,2.16,1,2.48,2.48,0,0,0,1.68-.62A3.61,3.61,0,0,0,157.6,154.73Z"/><path class="cls-1" d="M164.83,159.2V149.09h-3.61V147h9.67v2.06h-3.6V159.2Z"/><path class="cls-1" d="M172.49,159.2V147h5.17a8.77,8.77,0,0,1,2.83.33,2.84,2.84,0,0,1,1.42,1.17,3.52,3.52,0,0,1,.53,1.91,3.25,3.25,0,0,1-.81,2.27,3.85,3.85,0,0,1-2.4,1.12,5.62,5.62,0,0,1,1.31,1,13.64,13.64,0,0,1,1.4,2l1.49,2.37h-2.94l-1.78-2.65a19.09,19.09,0,0,0-1.29-1.79,2,2,0,0,0-.74-.5,4.12,4.12,0,0,0-1.24-.14h-.5v5.08Zm2.45-7h1.82A9.41,9.41,0,0,0,179,152a1.33,1.33,0,0,0,.69-.52,1.6,1.6,0,0,0,.25-.91,1.44,1.44,0,0,0-.33-1,1.55,1.55,0,0,0-.93-.48c-.2,0-.79,0-1.79,0h-1.92Z"/><path class="cls-1" d="M184.26,153.19a7.75,7.75,0,0,1,.55-3.12A5.76,5.76,0,0,1,186,148.4a4.55,4.55,0,0,1,1.57-1.09,6.69,6.69,0,0,1,2.62-.49,5.75,5.75,0,0,1,4.31,1.67,6.43,6.43,0,0,1,1.61,4.64,6.35,6.35,0,0,1-1.6,4.61,6.39,6.39,0,0,1-8.6,0A6.26,6.26,0,0,1,184.26,153.19Zm2.53-.08a4.58,4.58,0,0,0,1,3.13,3.13,3.13,0,0,0,2.43,1.07,3.07,3.07,0,0,0,2.41-1.06,5.8,5.8,0,0,0,0-6.3,3.41,3.41,0,0,0-4.88,0A4.58,4.58,0,0,0,186.79,153.11Zm1.86-6.77,1.14-2.49h2.62l-2.29,2.49Z"/><path class="cls-1" d="M198,159.2V147h2.39l5,8.13V147h2.29V159.2h-2.47l-4.9-7.93v7.93Z"/><path class="cls-1" d="M210.18,159.2V147h2.46V159.2Z"/><path class="cls-1" d="M222.76,154.73l2.39.75a5.35,5.35,0,0,1-1.83,3,5.15,5.15,0,0,1-3.23,1,5.22,5.22,0,0,1-4-1.66,6.33,6.33,0,0,1-1.56-4.53,6.66,6.66,0,0,1,1.56-4.71,5.38,5.38,0,0,1,4.13-1.69,5.07,5.07,0,0,1,3.63,1.32,4.82,4.82,0,0,1,1.24,2.25l-2.43.58a2.57,2.57,0,0,0-.9-1.5,2.61,2.61,0,0,0-1.66-.54,2.76,2.76,0,0,0-2.2,1,4.74,4.74,0,0,0-.84,3.14,5.06,5.06,0,0,0,.83,3.29,2.7,2.7,0,0,0,2.16,1,2.48,2.48,0,0,0,1.68-.62A3.61,3.61,0,0,0,222.76,154.73Z"/><path class="cls-1" d="M226.76,153.19a7.75,7.75,0,0,1,.55-3.12,5.76,5.76,0,0,1,1.14-1.67,4.55,4.55,0,0,1,1.57-1.09,6.69,6.69,0,0,1,2.62-.49,5.75,5.75,0,0,1,4.31,1.67,6.43,6.43,0,0,1,1.61,4.64,6.35,6.35,0,0,1-1.6,4.61,6.39,6.39,0,0,1-8.6,0A6.26,6.26,0,0,1,226.76,153.19Zm2.53-.08a4.58,4.58,0,0,0,1,3.13,3.13,3.13,0,0,0,2.43,1.07,3.07,3.07,0,0,0,2.41-1.06,5.8,5.8,0,0,0,0-6.3,3.41,3.41,0,0,0-4.88,0A4.58,4.58,0,0,0,229.29,153.11Z"/><path class="cls-1" d="M239.85,155.24l2.4-.23a2.91,2.91,0,0,0,.87,1.77,3.27,3.27,0,0,0,3.57.06,1.49,1.49,0,0,0,.6-1.17,1.11,1.11,0,0,0-.25-.74,2,2,0,0,0-.88-.53c-.29-.1-.95-.27-2-.53a6.75,6.75,0,0,1-2.78-1.2,3.2,3.2,0,0,1-1.12-2.45,3.15,3.15,0,0,1,.53-1.74,3.28,3.28,0,0,1,1.52-1.23,6.13,6.13,0,0,1,2.4-.43,5.12,5.12,0,0,1,3.44,1,3.52,3.52,0,0,1,1.22,2.68l-2.46.11a2.07,2.07,0,0,0-.67-1.35,2.53,2.53,0,0,0-1.56-.41,2.86,2.86,0,0,0-1.68.44.89.89,0,0,0-.39.75.94.94,0,0,0,.37.74,6.57,6.57,0,0,0,2.26.82,12,12,0,0,1,2.65.87,3.42,3.42,0,0,1,1.34,1.24,3.83,3.83,0,0,1-.09,3.9,3.51,3.51,0,0,1-1.65,1.35,6.76,6.76,0,0,1-2.64.45,5.3,5.3,0,0,1-3.55-1.07A4.71,4.71,0,0,1,239.85,155.24Z"/><path class="cls-1" d="M442.19,109.8V97.63h3.67l2.21,8.3,2.18-8.3h3.69V109.8h-2.28v-9.58l-2.42,9.58h-2.36l-2.41-9.58v9.58Z"/><path class="cls-1" d="M455.88,103.79a7.74,7.74,0,0,1,.56-3.12A5.73,5.73,0,0,1,457.57,99a4.68,4.68,0,0,1,1.58-1.09,6.65,6.65,0,0,1,2.62-.49,5.71,5.71,0,0,1,4.3,1.67,7.43,7.43,0,0,1,0,9.25,6.37,6.37,0,0,1-8.59,0A6.27,6.27,0,0,1,455.88,103.79Zm2.53-.08a4.53,4.53,0,0,0,1,3.13,3.1,3.1,0,0,0,2.42,1.07,3.06,3.06,0,0,0,2.41-1.06,5.77,5.77,0,0,0,0-6.3,3.39,3.39,0,0,0-4.89,0A4.58,4.58,0,0,0,458.41,103.71Z"/><path class="cls-1" d="M469,105.84l2.39-.23a3,3,0,0,0,.88,1.77,2.67,2.67,0,0,0,1.78.56,2.77,2.77,0,0,0,1.79-.5,1.51,1.51,0,0,0,.6-1.18,1.15,1.15,0,0,0-.25-.73,2.09,2.09,0,0,0-.89-.53c-.29-.1-.94-.27-2-.53a6.69,6.69,0,0,1-2.77-1.2,3.19,3.19,0,0,1-.59-4.19,3.28,3.28,0,0,1,1.52-1.23,6.11,6.11,0,0,1,2.39-.43,5.13,5.13,0,0,1,3.45,1,3.55,3.55,0,0,1,1.22,2.68l-2.46.11a2,2,0,0,0-.68-1.35,2.41,2.41,0,0,0-1.55-.41,2.75,2.75,0,0,0-1.68.44.89.89,0,0,0-.39.75.91.91,0,0,0,.37.74,6.58,6.58,0,0,0,2.25.82,12.07,12.07,0,0,1,2.66.87,3.42,3.42,0,0,1,1.34,1.24,3.65,3.65,0,0,1,.49,1.94,3.6,3.6,0,0,1-.59,2,3.43,3.43,0,0,1-1.64,1.35A6.82,6.82,0,0,1,474,110a5.25,5.25,0,0,1-3.54-1.07A4.62,4.62,0,0,1,469,105.84Z"/><path class="cls-1" d="M483.68,109.8V99.69h-3.61V97.63h9.67v2.06h-3.6V109.8Z"/><path class="cls-1" d="M491.33,109.8V97.63h5.18a8.77,8.77,0,0,1,2.83.33,2.84,2.84,0,0,1,1.42,1.17,3.49,3.49,0,0,1,.53,1.91,3.25,3.25,0,0,1-.81,2.27,3.85,3.85,0,0,1-2.4,1.12,5.62,5.62,0,0,1,1.31,1,13.64,13.64,0,0,1,1.4,2l1.49,2.37h-2.94l-1.78-2.65a19.09,19.09,0,0,0-1.29-1.79,2,2,0,0,0-.74-.5,4.12,4.12,0,0,0-1.24-.14h-.5v5.08Zm2.46-7h1.82a9.41,9.41,0,0,0,2.21-.15,1.33,1.33,0,0,0,.69-.52,1.6,1.6,0,0,0,.25-.91,1.44,1.44,0,0,0-.33-1,1.55,1.55,0,0,0-.93-.48c-.2,0-.79,0-1.79,0h-1.92Z"/><path class="cls-1" d="M514.58,109.8h-2.67L510.84,107H506l-1,2.76h-2.6l4.74-12.17h2.6ZM510.05,105l-1.67-4.52L506.73,105Z"/><path class="cls-1" d="M515.87,97.63h4.49a9,9,0,0,1,2.32.23A4.14,4.14,0,0,1,524.51,99a5.42,5.42,0,0,1,1.17,2,9.09,9.09,0,0,1,.39,2.87,8,8,0,0,1-.37,2.59,5.34,5.34,0,0,1-1.3,2.15,4.24,4.24,0,0,1-1.73,1,7.13,7.13,0,0,1-2.17.26h-4.63Zm2.46,2.06v8.06h1.83a6.48,6.48,0,0,0,1.49-.12,2.12,2.12,0,0,0,1-.5,2.56,2.56,0,0,0,.65-1.18,8.16,8.16,0,0,0,.24-2.23,7.46,7.46,0,0,0-.24-2.16,2.77,2.77,0,0,0-.7-1.18,2.37,2.37,0,0,0-1.14-.57,10.82,10.82,0,0,0-2-.12Z"/><path class="cls-1" d="M527.66,103.79a7.57,7.57,0,0,1,.56-3.12A5.54,5.54,0,0,1,529.35,99a4.64,4.64,0,0,1,1.57-1.09,6.69,6.69,0,0,1,2.62-.49,5.73,5.73,0,0,1,4.31,1.67,6.43,6.43,0,0,1,1.61,4.64,6.35,6.35,0,0,1-1.6,4.61,6.38,6.38,0,0,1-8.6,0A6.26,6.26,0,0,1,527.66,103.79Zm2.53-.08a4.53,4.53,0,0,0,1,3.13,3.27,3.27,0,0,0,4.83,0,5.83,5.83,0,0,0,0-6.3,3.39,3.39,0,0,0-4.89,0A4.58,4.58,0,0,0,530.19,103.71Z"/><path class="cls-1" d="M541.39,109.8V97.63h5.17a8.84,8.84,0,0,1,2.84.33,2.77,2.77,0,0,1,1.41,1.17,3.49,3.49,0,0,1,.53,1.91,3.29,3.29,0,0,1-.8,2.27,3.87,3.87,0,0,1-2.41,1.12,5.62,5.62,0,0,1,1.31,1,12.89,12.89,0,0,1,1.4,2l1.49,2.37h-2.94l-1.78-2.65a19.09,19.09,0,0,0-1.29-1.79,1.91,1.91,0,0,0-.74-.5,4.07,4.07,0,0,0-1.24-.14h-.49v5.08Zm2.46-7h1.81a9.35,9.35,0,0,0,2.21-.15,1.29,1.29,0,0,0,.69-.52,1.53,1.53,0,0,0,.25-.91,1.44,1.44,0,0,0-.33-1,1.52,1.52,0,0,0-.92-.48c-.2,0-.8,0-1.8,0h-1.91Z"/><path class="cls-1" d="M484.05,118h2.45v7.71a7.73,7.73,0,0,1-.27,2.32,3.33,3.33,0,0,1-1.29,1.71,4.38,4.38,0,0,1-2.48.64,3.68,3.68,0,0,1-2.77-1,4.14,4.14,0,0,1-1-3l2.32-.26a3.21,3.21,0,0,0,.3,1.47,1.32,1.32,0,0,0,1.21.66,1.37,1.37,0,0,0,1.17-.47,3.76,3.76,0,0,0,.34-2Z"/><path class="cls-1" d="M488.61,124.19a7.74,7.74,0,0,1,.56-3.12,5.73,5.73,0,0,1,1.13-1.67,4.74,4.74,0,0,1,1.57-1.09,6.74,6.74,0,0,1,2.63-.49,5.71,5.71,0,0,1,4.3,1.67,7.43,7.43,0,0,1,0,9.25,5.65,5.65,0,0,1-4.28,1.67,5.72,5.72,0,0,1-4.32-1.66A6.3,6.3,0,0,1,488.61,124.19Zm2.53-.08a4.53,4.53,0,0,0,1,3.13,3.11,3.11,0,0,0,2.42,1.07,3.06,3.06,0,0,0,2.41-1.06,5.77,5.77,0,0,0,0-6.3,3.42,3.42,0,0,0-4.89,0A4.58,4.58,0,0,0,491.14,124.11Z"/><path class="cls-1" d="M505.53,130.2v-5.12l-4.46-7H504l2.87,4.82,2.8-4.82h2.83L508,125.1v5.1Z"/><path class="cls-1" d="M513.67,130.2V118h9v2.06h-6.57v2.7h6.11v2h-6.11v3.31h6.8v2Z"/><path class="cls-1" d="M525,130.2V118h5.17a8.84,8.84,0,0,1,2.84.33,2.77,2.77,0,0,1,1.41,1.17,3.43,3.43,0,0,1,.53,1.91,3.29,3.29,0,0,1-.8,2.27,3.87,3.87,0,0,1-2.41,1.12,5.9,5.9,0,0,1,1.32,1,13.77,13.77,0,0,1,1.39,2L536,130.2H533l-1.77-2.65a20.52,20.52,0,0,0-1.3-1.79,1.91,1.91,0,0,0-.74-.5,4,4,0,0,0-1.23-.14h-.5v5.08Zm2.46-7h1.81a9.35,9.35,0,0,0,2.21-.15,1.26,1.26,0,0,0,.69-.52,1.53,1.53,0,0,0,.25-.91,1.44,1.44,0,0,0-.33-1,1.52,1.52,0,0,0-.92-.48c-.2,0-.8,0-1.8,0h-1.91Z"/><path class="cls-1" d="M536.93,117.34l1.15-2.49h2.61l-2.28,2.49Zm.28,12.86V118h2.46V130.2Z"/><path class="cls-1" d="M553,130.2h-2.68l-1.06-2.76h-4.86l-1,2.76h-2.61L545.51,118h2.6Zm-4.53-4.81-1.68-4.52-1.64,4.52Z"/><path class="cls-1" d="M942.44,145.33l2.39.75a5.35,5.35,0,0,1-1.83,3,5.13,5.13,0,0,1-3.23,1,5.22,5.22,0,0,1-4-1.66,6.33,6.33,0,0,1-1.56-4.53,6.66,6.66,0,0,1,1.56-4.71,5.38,5.38,0,0,1,4.13-1.69,5.07,5.07,0,0,1,3.63,1.32,4.77,4.77,0,0,1,1.24,2.25l-2.43.58a2.57,2.57,0,0,0-.9-1.5,2.61,2.61,0,0,0-1.66-.55,2.76,2.76,0,0,0-2.2,1,4.74,4.74,0,0,0-.84,3.14,5.06,5.06,0,0,0,.83,3.29,2.7,2.7,0,0,0,2.16,1,2.48,2.48,0,0,0,1.68-.62A3.61,3.61,0,0,0,942.44,145.33Z"/><path class="cls-1" d="M957.91,149.8h-2.67L954.17,147h-4.86l-1,2.76h-2.6l4.74-12.17H953ZM953.38,145l-1.67-4.52L950.06,145Z"/><path class="cls-1" d="M963.6,137.63h2.45v7.71a8.13,8.13,0,0,1-.26,2.32,3.29,3.29,0,0,1-1.3,1.71A4.35,4.35,0,0,1,962,150a3.66,3.66,0,0,1-2.77-1,4.14,4.14,0,0,1-1-3l2.32-.26a3.19,3.19,0,0,0,.31,1.47,1.31,1.31,0,0,0,1.21.66,1.33,1.33,0,0,0,1.16-.47,3.66,3.66,0,0,0,.34-1.95Z"/><path class="cls-1" d="M979.64,149.8H977L975.9,147H971l-1,2.76h-2.61l4.74-12.17h2.6ZM975.12,145l-1.68-4.52L971.8,145Z"/><path class="cls-1" d="M980.32,145.84l2.39-.23a2.92,2.92,0,0,0,.88,1.77,2.67,2.67,0,0,0,1.78.56,2.79,2.79,0,0,0,1.79-.5,1.51,1.51,0,0,0,.6-1.18,1.11,1.11,0,0,0-.26-.73,2,2,0,0,0-.88-.53c-.29-.1-.94-.27-2-.53a6.69,6.69,0,0,1-2.77-1.2,3.19,3.19,0,0,1-.59-4.19,3.28,3.28,0,0,1,1.52-1.23,6.11,6.11,0,0,1,2.39-.43,5.13,5.13,0,0,1,3.45,1,3.55,3.55,0,0,1,1.22,2.68l-2.46.11a2.07,2.07,0,0,0-.68-1.35,2.41,2.41,0,0,0-1.55-.41,2.75,2.75,0,0,0-1.68.44.89.89,0,0,0-.39.75.93.93,0,0,0,.36.74,6.66,6.66,0,0,0,2.26.82,11.77,11.77,0,0,1,2.65.87,3.38,3.38,0,0,1,1.35,1.24,3.65,3.65,0,0,1,.48,1.94,3.58,3.58,0,0,1-.58,2,3.43,3.43,0,0,1-1.64,1.35,6.82,6.82,0,0,1-2.65.45A5.25,5.25,0,0,1,981.8,149,4.62,4.62,0,0,1,980.32,145.84Z"/><path class="cls-1" d="M999.89,149.8v-5.12l-4.45-7.05h2.88l2.86,4.82,2.81-4.82h2.83l-4.48,7.07v5.1Z"/><path class="cls-1" d="M937.76,170.2,933.41,158h2.67l3.08,9,3-9h2.6l-4.35,12.17Z"/><path class="cls-1" d="M955.71,170.2H953L952,167.44h-4.86l-1,2.76h-2.6L948.24,158h2.6Zm-4.53-4.81-1.67-4.52-1.65,4.52Z"/><path class="cls-1" d="M957.08,170.2V158.13h2.46v10h6.1v2Z"/><path class="cls-1" d="M967.38,158h2.46v6.59a13.94,13.94,0,0,0,.09,2,2,2,0,0,0,.75,1.2,2.64,2.64,0,0,0,1.62.45,2.46,2.46,0,0,0,1.58-.43,1.67,1.67,0,0,0,.64-1,13.82,13.82,0,0,0,.11-2.07V158h2.45v6.39a15.84,15.84,0,0,1-.2,3.1,3.41,3.41,0,0,1-.73,1.53,3.8,3.8,0,0,1-1.43,1,6.17,6.17,0,0,1-2.34.37,6.91,6.91,0,0,1-2.65-.4,3.79,3.79,0,0,1-1.42-1,3.34,3.34,0,0,1-.69-1.35,14.87,14.87,0,0,1-.24-3.09Z"/><path class="cls-1" d="M990.65,170.2H988l-1.06-2.76h-4.86l-1,2.76h-2.6L983.18,158h2.59Zm-4.53-4.81-1.67-4.52-1.65,4.52Z"/><path class="cls-1" d="M999.74,165.73l2.38.75a5.34,5.34,0,0,1-1.82,3,5.72,5.72,0,0,1-7.22-.69,6.33,6.33,0,0,1-1.56-4.53,6.62,6.62,0,0,1,1.57-4.71,5.34,5.34,0,0,1,4.12-1.69,5.07,5.07,0,0,1,3.63,1.32,4.82,4.82,0,0,1,1.24,2.25l-2.43.58a2.49,2.49,0,0,0-2.56-2,2.77,2.77,0,0,0-2.2,1,4.74,4.74,0,0,0-.84,3.14,5.13,5.13,0,0,0,.83,3.29,2.7,2.7,0,0,0,2.16,1,2.48,2.48,0,0,0,1.68-.62A3.68,3.68,0,0,0,999.74,165.73Z"/><path class="cls-1" d="M1004.15,170.2V158h2.46V170.2Z"/><path class="cls-1" d="M1008.45,164.19a7.74,7.74,0,0,1,.56-3.12,5.54,5.54,0,0,1,1.13-1.67,4.64,4.64,0,0,1,1.57-1.09,6.74,6.74,0,0,1,2.63-.49,5.72,5.72,0,0,1,4.3,1.67,7.47,7.47,0,0,1,0,9.25,6.38,6.38,0,0,1-8.6,0A6.3,6.3,0,0,1,1008.45,164.19Zm2.53-.08a4.53,4.53,0,0,0,1,3.13,3.1,3.1,0,0,0,2.42,1.07,3.06,3.06,0,0,0,2.41-1.06,5.77,5.77,0,0,0,0-6.3,3.42,3.42,0,0,0-4.89,0A4.58,4.58,0,0,0,1011,164.11Zm1.86-6.77,1.15-2.49h2.61l-2.28,2.49Z"/><path class="cls-1" d="M1022.2,170.2V158h2.39l5,8.13V158h2.28V170.2h-2.46l-4.91-7.93v7.93Z"/><path class="cls-1" d="M726.13,455.84l2.39-.23a3,3,0,0,0,.88,1.77,2.67,2.67,0,0,0,1.78.56,2.77,2.77,0,0,0,1.79-.5,1.51,1.51,0,0,0,.6-1.18,1.1,1.1,0,0,0-.25-.73,2.09,2.09,0,0,0-.89-.53c-.29-.1-.94-.27-2-.53a6.69,6.69,0,0,1-2.77-1.2,3.2,3.2,0,0,1-1.12-2.45,3.15,3.15,0,0,1,.53-1.74,3.28,3.28,0,0,1,1.52-1.23,6.11,6.11,0,0,1,2.39-.43,5.13,5.13,0,0,1,3.45,1,3.55,3.55,0,0,1,1.22,2.68l-2.46.11a2,2,0,0,0-.68-1.35,2.41,2.41,0,0,0-1.55-.41,2.75,2.75,0,0,0-1.68.44.89.89,0,0,0-.39.75.91.91,0,0,0,.37.74,6.58,6.58,0,0,0,2.25.82,12.07,12.07,0,0,1,2.66.87,3.42,3.42,0,0,1,1.34,1.24,3.83,3.83,0,0,1-.09,3.9,3.51,3.51,0,0,1-1.65,1.35,6.82,6.82,0,0,1-2.65.45,5.27,5.27,0,0,1-3.54-1.07A4.62,4.62,0,0,1,726.13,455.84Z"/><path class="cls-1" d="M749.07,459.8h-2.68L745.33,457h-4.86l-1,2.76h-2.6l4.74-12.17h2.59ZM744.54,455l-1.67-4.52L741.22,455Z"/><path class="cls-1" d="M750.4,459.8V447.63h2.39l5,8.13v-8.13h2.28V459.8h-2.47l-4.9-7.93v7.93Z"/><path class="cls-1" d="M762.57,459.8V447.63H765V459.8Z"/><path class="cls-1" d="M770.11,459.8V449.69H766.5v-2.06h9.67v2.06h-3.6V459.8Z"/><path class="cls-1" d="M787.47,459.8h-2.68L783.73,457h-4.86l-1,2.76h-2.6L780,447.63h2.59ZM782.94,455l-1.67-4.52L779.62,455Z"/><path class="cls-1" d="M788.78,459.8V447.63H794a8.77,8.77,0,0,1,2.83.33,2.84,2.84,0,0,1,1.42,1.17,3.49,3.49,0,0,1,.53,1.91,3.25,3.25,0,0,1-.81,2.27,3.82,3.82,0,0,1-2.4,1.12,5.62,5.62,0,0,1,1.31,1,12.89,12.89,0,0,1,1.4,2l1.49,2.37h-2.94L795,457.15a19.09,19.09,0,0,0-1.29-1.79,1.91,1.91,0,0,0-.74-.5,4.07,4.07,0,0,0-1.24-.14h-.49v5.08Zm2.46-7h1.81a9.35,9.35,0,0,0,2.21-.15,1.33,1.33,0,0,0,.69-.52,1.53,1.53,0,0,0,.25-.91,1.44,1.44,0,0,0-.33-1,1.55,1.55,0,0,0-.92-.48c-.2,0-.8,0-1.8,0h-1.91Z"/><path class="cls-1" d="M801,459.8V447.63h2.46V459.8Z"/><path class="cls-1" d="M805.27,453.79a7.74,7.74,0,0,1,.56-3.12A5.54,5.54,0,0,1,807,449a4.64,4.64,0,0,1,1.57-1.09,6.74,6.74,0,0,1,2.63-.49,5.72,5.72,0,0,1,4.3,1.67,7.43,7.43,0,0,1,0,9.25,5.65,5.65,0,0,1-4.28,1.67,5.72,5.72,0,0,1-4.32-1.66A6.3,6.3,0,0,1,805.27,453.79Zm2.53-.08a4.53,4.53,0,0,0,1,3.13,3.27,3.27,0,0,0,4.83,0,5.77,5.77,0,0,0,0-6.3,3.39,3.39,0,0,0-4.89,0A4.58,4.58,0,0,0,807.8,453.71Z"/><path class="cls-1" d="M818.37,455.84l2.39-.23a3,3,0,0,0,.88,1.77,2.67,2.67,0,0,0,1.78.56,2.79,2.79,0,0,0,1.79-.5,1.51,1.51,0,0,0,.6-1.18,1.11,1.11,0,0,0-.26-.73,2,2,0,0,0-.88-.53c-.29-.1-.94-.27-2-.53a6.69,6.69,0,0,1-2.77-1.2,3.19,3.19,0,0,1-.59-4.19,3.23,3.23,0,0,1,1.52-1.23,6.11,6.11,0,0,1,2.39-.43,5.13,5.13,0,0,1,3.45,1,3.55,3.55,0,0,1,1.22,2.68l-2.46.11a2.07,2.07,0,0,0-.68-1.35,2.41,2.41,0,0,0-1.55-.41,2.75,2.75,0,0,0-1.68.44.89.89,0,0,0-.39.75.93.93,0,0,0,.36.74,6.66,6.66,0,0,0,2.26.82,11.77,11.77,0,0,1,2.65.87,3.38,3.38,0,0,1,1.35,1.24,3.65,3.65,0,0,1,.48,1.94,3.58,3.58,0,0,1-.58,2,3.43,3.43,0,0,1-1.64,1.35,6.82,6.82,0,0,1-2.65.45,5.25,5.25,0,0,1-3.54-1.07A4.62,4.62,0,0,1,818.37,455.84Z"/><path class="cls-1" d="M499.5,549.8V537.63h9v2.06H502v2.7h6.11v2.05H502v3.31h6.79v2Z"/><path class="cls-1" d="M510.86,549.8V537.63h2.39l5,8.13v-8.13h2.29V549.8h-2.47l-4.9-7.93v7.93Z"/><path class="cls-1" d="M525.85,549.8V539.69h-3.61v-2.06h9.67v2.06h-3.6V549.8Z"/><path class="cls-1" d="M533.51,549.8V537.63h5.17a8.77,8.77,0,0,1,2.83.33,2.84,2.84,0,0,1,1.42,1.17,3.49,3.49,0,0,1,.53,1.91,3.25,3.25,0,0,1-.81,2.27,3.82,3.82,0,0,1-2.4,1.12,5.62,5.62,0,0,1,1.31,1,13.64,13.64,0,0,1,1.4,2l1.49,2.37h-2.94l-1.78-2.65a19.09,19.09,0,0,0-1.29-1.79,1.91,1.91,0,0,0-.74-.5,4.07,4.07,0,0,0-1.24-.14H536v5.08Zm2.45-7h1.82a9.35,9.35,0,0,0,2.21-.15,1.33,1.33,0,0,0,.69-.52,1.6,1.6,0,0,0,.25-.91,1.44,1.44,0,0,0-.33-1,1.55,1.55,0,0,0-.93-.48c-.19,0-.79,0-1.79,0H536Z"/><path class="cls-1" d="M556.75,549.8h-2.67L553,547h-4.86l-1,2.76h-2.61l4.74-12.17h2.6ZM552.23,545l-1.68-4.52L548.91,545Z"/><path class="cls-1" d="M558,537.63h4.49a9,9,0,0,1,2.32.23,4.08,4.08,0,0,1,1.83,1.12,5.42,5.42,0,0,1,1.17,2,9.06,9.06,0,0,1,.4,2.87,8,8,0,0,1-.38,2.59,5.34,5.34,0,0,1-1.3,2.15,4.24,4.24,0,0,1-1.73,1,7.09,7.09,0,0,1-2.17.26H558Zm2.46,2.06v8.06h1.83a6.48,6.48,0,0,0,1.49-.12,2.12,2.12,0,0,0,1-.5,2.56,2.56,0,0,0,.65-1.18,8.1,8.1,0,0,0,.25-2.23,7.41,7.41,0,0,0-.25-2.16,2.77,2.77,0,0,0-.7-1.18,2.37,2.37,0,0,0-1.14-.57,10.75,10.75,0,0,0-2-.12Z"/><path class="cls-1" d="M581.3,549.8h-2.67L577.57,547H572.7l-1,2.76h-2.61l4.74-12.17h2.6ZM576.78,545l-1.68-4.52L573.46,545Z"/><path class="cls-1" d="M127.73,275.8h-2.67L124,273h-4.86l-1,2.76h-2.6l4.74-12.17h2.6ZM123.2,271l-1.67-4.52L119.88,271Z"/><path class="cls-1" d="M129.06,275.8V263.63h2.39l5,8.13v-8.13h2.28V275.8h-2.46l-4.91-7.93v7.93Z"/><path class="cls-1" d="M152.28,275.8h-2.67L148.55,273h-4.87l-1,2.76h-2.61l4.74-12.17h2.6ZM147.76,271l-1.68-4.52L144.44,271Z"/><path class="cls-1" d="M163.38,274.26a8.21,8.21,0,0,0,2,1l-.91,1.73a5.39,5.39,0,0,1-1.09-.46c-.07,0-.62-.39-1.63-1.07a6.7,6.7,0,0,1-2.65.52,5.81,5.81,0,0,1-4.39-1.65,7.57,7.57,0,0,1,0-9.28,6.43,6.43,0,0,1,8.62,0,6.46,6.46,0,0,1,1.58,4.64,7.86,7.86,0,0,1-.44,2.77A5.67,5.67,0,0,1,163.38,274.26Zm-2-1.39a3.52,3.52,0,0,0,.71-1.34,6.25,6.25,0,0,0,.24-1.81,4.59,4.59,0,0,0-.93-3.15,3.35,3.35,0,0,0-4.87,0,4.63,4.63,0,0,0-.93,3.15,4.73,4.73,0,0,0,.93,3.19,3,3,0,0,0,2.36,1.06,2.83,2.83,0,0,0,1-.18,7.44,7.44,0,0,0-1.52-.76l.69-1.4A8.1,8.1,0,0,1,161.4,272.87Z"/><path class="cls-1" d="M166.79,263.63h2.46v6.59a13.94,13.94,0,0,0,.09,2,2,2,0,0,0,.75,1.2,2.64,2.64,0,0,0,1.62.45,2.44,2.44,0,0,0,1.58-.43,1.63,1.63,0,0,0,.64-1.05,13.82,13.82,0,0,0,.11-2.07v-6.73h2.46V270a16.68,16.68,0,0,1-.2,3.1,3.53,3.53,0,0,1-.74,1.53,3.8,3.8,0,0,1-1.43,1,6.37,6.37,0,0,1-2.34.37,7,7,0,0,1-2.65-.4,3.79,3.79,0,0,1-1.42-1.05,3.34,3.34,0,0,1-.69-1.35,14.87,14.87,0,0,1-.24-3.09Z"/><path class="cls-1" d="M179.08,275.8V263.63h9v2.06h-6.57v2.7h6.11v2.05h-6.11v3.31h6.8v2.05Z"/><path class="cls-1" d="M190.49,275.8V263.73H193v10h6.11v2.05Z"/><path class="cls-1" d="M116.76,296.2V284h2.46v4.79H124V284h2.46V296.2H124v-5.32h-4.81v5.32Z"/><path class="cls-1" d="M129,296.2V284h9v2.06h-6.56v2.7h6.11v2h-6.11v3.31h6.8v2.05Z"/><path class="cls-1" d="M140.38,296.2V284h5.17a8.73,8.73,0,0,1,2.83.33,2.8,2.8,0,0,1,1.42,1.17,3.52,3.52,0,0,1,.53,1.91,3.29,3.29,0,0,1-.8,2.27,3.87,3.87,0,0,1-2.41,1.12,5.62,5.62,0,0,1,1.31,1,12.89,12.89,0,0,1,1.4,2l1.49,2.37h-2.94l-1.78-2.65a19.09,19.09,0,0,0-1.29-1.79,1.91,1.91,0,0,0-.74-.5,4.07,4.07,0,0,0-1.24-.14h-.5v5.08Zm2.45-7h1.82a9.35,9.35,0,0,0,2.21-.15,1.29,1.29,0,0,0,.69-.52,1.53,1.53,0,0,0,.25-.91,1.44,1.44,0,0,0-.33-1,1.55,1.55,0,0,0-.92-.48c-.2,0-.8,0-1.8,0h-1.92Z"/><path class="cls-1" d="M152.66,296.2V284h5.17a8.77,8.77,0,0,1,2.83.33,2.84,2.84,0,0,1,1.42,1.17,3.52,3.52,0,0,1,.53,1.91,3.25,3.25,0,0,1-.81,2.27,3.85,3.85,0,0,1-2.4,1.12,5.62,5.62,0,0,1,1.31,1,13.64,13.64,0,0,1,1.4,2l1.49,2.37h-2.94l-1.78-2.65a19.09,19.09,0,0,0-1.29-1.79,2,2,0,0,0-.74-.5,4.12,4.12,0,0,0-1.24-.14h-.5v5.08Zm2.45-7h1.82a9.41,9.41,0,0,0,2.21-.15,1.33,1.33,0,0,0,.69-.52,1.6,1.6,0,0,0,.25-.91,1.44,1.44,0,0,0-.33-1,1.55,1.55,0,0,0-.93-.48c-.2,0-.79,0-1.79,0h-1.92Z"/><path class="cls-1" d="M175.9,296.2h-2.68l-1.06-2.76H167.3l-1,2.76h-2.6L168.43,284H171Zm-4.53-4.81-1.67-4.52-1.65,4.52Z"/><path class="cls-1" d="M177.17,296.2V284h3.67l2.21,8.3,2.19-8.3h3.68V296.2h-2.28v-9.58l-2.42,9.58h-2.36l-2.41-9.58v9.58Z"/><path class="cls-1" d="M191.29,296.2V284h2.45V296.2Z"/><path class="cls-1" d="M196.08,296.2V284h9v2.06h-6.57v2.7h6.11v2h-6.11v3.31h6.8v2.05Z"/><path class="cls-1" d="M207.45,296.2V284h2.39l5,8.13V284h2.28V296.2h-2.46l-4.91-7.93v7.93Z"/><path class="cls-1" d="M222.44,296.2V286.09h-3.61V284h9.67v2.06h-3.6V296.2Z"/><path class="cls-1" d="M239.8,296.2h-2.68l-1.06-2.76H231.2l-1,2.76h-2.6L232.33,284h2.59Zm-4.53-4.81-1.67-4.52L232,291.39Z"/><path class="cls-1" d="M240.48,292.24l2.39-.23a2.91,2.91,0,0,0,.87,1.77,3.27,3.27,0,0,0,3.57.06,1.49,1.49,0,0,0,.6-1.17,1.11,1.11,0,0,0-.25-.74,2,2,0,0,0-.88-.53c-.29-.1-.95-.27-2-.53a6.63,6.63,0,0,1-2.77-1.2,3.21,3.21,0,0,1-.6-4.19,3.33,3.33,0,0,1,1.52-1.23,6.13,6.13,0,0,1,2.4-.43,5.13,5.13,0,0,1,3.45,1,3.51,3.51,0,0,1,1.21,2.68l-2.45.11a2.07,2.07,0,0,0-.68-1.35,2.51,2.51,0,0,0-1.56-.41,2.81,2.81,0,0,0-1.67.44.89.89,0,0,0-.39.75.93.93,0,0,0,.36.74,6.57,6.57,0,0,0,2.26.82,12,12,0,0,1,2.65.87,3.51,3.51,0,0,1,1.35,1.24,3.65,3.65,0,0,1,.48,1.94,3.58,3.58,0,0,1-.58,2,3.48,3.48,0,0,1-1.64,1.35,6.82,6.82,0,0,1-2.65.45,5.25,5.25,0,0,1-3.54-1.07A4.62,4.62,0,0,1,240.48,292.24Z"/><path class="cls-1" d="M127.73,400.8h-2.67L124,398h-4.86l-1,2.76h-2.6l4.74-12.17h2.6ZM123.2,396l-1.67-4.52L119.88,396Z"/><path class="cls-1" d="M129.06,400.8V388.63h2.39l5,8.13v-8.13h2.28V400.8h-2.46l-4.91-7.93v7.93Z"/><path class="cls-1" d="M152.28,400.8h-2.67L148.55,398h-4.87l-1,2.76h-2.61l4.74-12.17h2.6ZM147.76,396l-1.68-4.52L144.44,396Z"/><path class="cls-1" d="M163.38,399.26a8.21,8.21,0,0,0,2,1l-.91,1.73a5.39,5.39,0,0,1-1.09-.46c-.07,0-.62-.39-1.63-1.07a6.7,6.7,0,0,1-2.65.52,5.81,5.81,0,0,1-4.39-1.65,7.57,7.57,0,0,1,0-9.28,6.43,6.43,0,0,1,8.62,0,6.46,6.46,0,0,1,1.58,4.64,7.86,7.86,0,0,1-.44,2.77A5.67,5.67,0,0,1,163.38,399.26Zm-2-1.39a3.52,3.52,0,0,0,.71-1.34,6.25,6.25,0,0,0,.24-1.81,4.59,4.59,0,0,0-.93-3.15,3.35,3.35,0,0,0-4.87,0,4.63,4.63,0,0,0-.93,3.15,4.73,4.73,0,0,0,.93,3.19,3,3,0,0,0,2.36,1.06,2.83,2.83,0,0,0,1-.18,7.44,7.44,0,0,0-1.52-.76l.69-1.4A8.1,8.1,0,0,1,161.4,397.87Z"/><path class="cls-1" d="M166.79,388.63h2.46v6.59a13.94,13.94,0,0,0,.09,2,2,2,0,0,0,.75,1.2,2.64,2.64,0,0,0,1.62.45,2.44,2.44,0,0,0,1.58-.43,1.63,1.63,0,0,0,.64-1.05,13.82,13.82,0,0,0,.11-2.07v-6.73h2.46V395a16.68,16.68,0,0,1-.2,3.1,3.53,3.53,0,0,1-.74,1.53,3.8,3.8,0,0,1-1.43,1,6.37,6.37,0,0,1-2.34.37,7,7,0,0,1-2.65-.4,3.79,3.79,0,0,1-1.42-1.05,3.34,3.34,0,0,1-.69-1.35,14.87,14.87,0,0,1-.24-3.09Z"/><path class="cls-1" d="M179.08,400.8V388.63h9v2.06h-6.57v2.7h6.11v2.05h-6.11v3.31h6.8v2.05Z"/><path class="cls-1" d="M190.49,400.8V388.73H193v10h6.11v2.05Z"/><path class="cls-1" d="M116.75,421.2V409h9v2.06h-6.57v2.7h6.11v2h-6.11v3.31H126v2.05Z"/><path class="cls-1" d="M128.16,421.2V409.13h2.46v10h6.11v2.05Z"/><path class="cls-1" d="M138.48,421.2V409h9v2.06h-6.57v2.7H147v2h-6.11v3.31h6.8v2.05Z"/><path class="cls-1" d="M157.6,416.73l2.39.75a5.35,5.35,0,0,1-1.83,3,5.71,5.71,0,0,1-7.21-.69,6.33,6.33,0,0,1-1.57-4.53,6.66,6.66,0,0,1,1.57-4.71,5.36,5.36,0,0,1,4.13-1.69,5.07,5.07,0,0,1,3.63,1.32,4.91,4.91,0,0,1,1.24,2.25l-2.43.58a2.57,2.57,0,0,0-.9-1.5,2.61,2.61,0,0,0-1.67-.54,2.75,2.75,0,0,0-2.19,1,4.74,4.74,0,0,0-.84,3.14,5.06,5.06,0,0,0,.83,3.29,2.7,2.7,0,0,0,2.16,1,2.48,2.48,0,0,0,1.68-.62A3.61,3.61,0,0,0,157.6,416.73Z"/><path class="cls-1" d="M164.83,421.2V411.09h-3.61V409h9.67v2.06h-3.6V421.2Z"/><path class="cls-1" d="M172.49,421.2V409h5.17a8.77,8.77,0,0,1,2.83.33,2.84,2.84,0,0,1,1.42,1.17,3.52,3.52,0,0,1,.53,1.91,3.25,3.25,0,0,1-.81,2.27,3.85,3.85,0,0,1-2.4,1.12,5.62,5.62,0,0,1,1.31,1,13.64,13.64,0,0,1,1.4,2l1.49,2.37h-2.94l-1.78-2.65a19.09,19.09,0,0,0-1.29-1.79,2,2,0,0,0-.74-.5,4.12,4.12,0,0,0-1.24-.14h-.5v5.08Zm2.45-7h1.82A9.41,9.41,0,0,0,179,414a1.33,1.33,0,0,0,.69-.52,1.6,1.6,0,0,0,.25-.91,1.44,1.44,0,0,0-.33-1,1.55,1.55,0,0,0-.93-.48c-.2,0-.79,0-1.79,0h-1.92Z"/><path class="cls-1" d="M184.26,415.19a7.75,7.75,0,0,1,.55-3.12A5.76,5.76,0,0,1,186,410.4a4.55,4.55,0,0,1,1.57-1.09,6.69,6.69,0,0,1,2.62-.49,5.75,5.75,0,0,1,4.31,1.67,6.43,6.43,0,0,1,1.61,4.64,6.35,6.35,0,0,1-1.6,4.61,6.39,6.39,0,0,1-8.6,0A6.26,6.26,0,0,1,184.26,415.19Zm2.53-.08a4.58,4.58,0,0,0,1,3.13,3.13,3.13,0,0,0,2.43,1.07,3.07,3.07,0,0,0,2.41-1.06,5.8,5.8,0,0,0,0-6.3,3.41,3.41,0,0,0-4.88,0A4.58,4.58,0,0,0,186.79,415.11Z"/><path class="cls-1" d="M198,409h4.49a9,9,0,0,1,2.32.23,4.14,4.14,0,0,1,1.83,1.12,5.27,5.27,0,0,1,1.16,2,8.79,8.79,0,0,1,.4,2.87,8,8,0,0,1-.37,2.59,5.29,5.29,0,0,1-1.31,2.15,4.2,4.2,0,0,1-1.72,1,7.16,7.16,0,0,1-2.18.26H198Zm2.46,2.06v8.06h1.83a7.36,7.36,0,0,0,1.49-.11,2.22,2.22,0,0,0,1-.51,2.55,2.55,0,0,0,.64-1.18,7.7,7.7,0,0,0,.25-2.22,7.1,7.1,0,0,0-.25-2.17,2.73,2.73,0,0,0-.7-1.18,2.29,2.29,0,0,0-1.13-.57,10.9,10.9,0,0,0-2-.12Z"/><path class="cls-1" d="M209.76,415.19a7.75,7.75,0,0,1,.55-3.12,5.76,5.76,0,0,1,1.14-1.67,4.55,4.55,0,0,1,1.57-1.09,6.69,6.69,0,0,1,2.62-.49,5.75,5.75,0,0,1,4.31,1.67,6.43,6.43,0,0,1,1.61,4.64,6.35,6.35,0,0,1-1.6,4.61,6.39,6.39,0,0,1-8.6,0A6.26,6.26,0,0,1,209.76,415.19Zm2.53-.08a4.58,4.58,0,0,0,1,3.13,3.13,3.13,0,0,0,2.43,1.07,3.07,3.07,0,0,0,2.41-1.06,5.8,5.8,0,0,0,0-6.3,3.41,3.41,0,0,0-4.88,0A4.58,4.58,0,0,0,212.29,415.11Z"/><path class="cls-1" d="M223.44,421.2V409h3.68l2.21,8.3,2.18-8.3h3.69V421.2h-2.29v-9.58l-2.41,9.58h-2.37l-2.4-9.58v9.58Z"/><path class="cls-1" d="M237.64,421.2V409h9v2.06H240.1v2.7h6.11v2H240.1v3.31h6.79v2.05Z"/><path class="cls-1" d="M248.35,417.24l2.4-.23a2.91,2.91,0,0,0,.87,1.77,3.27,3.27,0,0,0,3.57.06,1.49,1.49,0,0,0,.6-1.17,1.11,1.11,0,0,0-.25-.74,2,2,0,0,0-.88-.53c-.29-.1-.95-.27-2-.53a6.75,6.75,0,0,1-2.78-1.2,3.2,3.2,0,0,1-1.12-2.45,3.15,3.15,0,0,1,.53-1.74,3.28,3.28,0,0,1,1.52-1.23,6.13,6.13,0,0,1,2.4-.43,5.12,5.12,0,0,1,3.44,1,3.52,3.52,0,0,1,1.22,2.68l-2.46.11a2.07,2.07,0,0,0-.67-1.35,2.53,2.53,0,0,0-1.56-.41,2.86,2.86,0,0,0-1.68.44.89.89,0,0,0-.39.75.94.94,0,0,0,.37.74,6.57,6.57,0,0,0,2.26.82,12,12,0,0,1,2.65.87,3.42,3.42,0,0,1,1.34,1.24,3.83,3.83,0,0,1-.09,3.9A3.51,3.51,0,0,1,256,421a6.76,6.76,0,0,1-2.64.45,5.3,5.3,0,0,1-3.55-1.07A4.71,4.71,0,0,1,248.35,417.24Z"/><path class="cls-1" d="M263.06,421.2V411.09h-3.62V409h9.68v2.06h-3.61V421.2Z"/><path class="cls-1" d="M270.63,421.2V409h2.45V421.2Z"/><path class="cls-1" d="M283.21,416.73l2.38.75a5.29,5.29,0,0,1-1.82,3,5.17,5.17,0,0,1-3.23,1,5.22,5.22,0,0,1-4-1.66,6.33,6.33,0,0,1-1.56-4.53,6.62,6.62,0,0,1,1.57-4.71,5.36,5.36,0,0,1,4.13-1.69,5.06,5.06,0,0,1,3.62,1.32,4.83,4.83,0,0,1,1.25,2.25l-2.43.58a2.68,2.68,0,0,0-.9-1.5,2.63,2.63,0,0,0-1.67-.54,2.75,2.75,0,0,0-2.19,1,4.68,4.68,0,0,0-.85,3.14,5.13,5.13,0,0,0,.83,3.29,2.73,2.73,0,0,0,2.16,1,2.5,2.5,0,0,0,1.69-.62A3.68,3.68,0,0,0,283.21,416.73Z"/><path class="cls-1" d="M287.2,415.19a7.74,7.74,0,0,1,.56-3.12,5.73,5.73,0,0,1,1.13-1.67,4.74,4.74,0,0,1,1.57-1.09,6.74,6.74,0,0,1,2.63-.49,5.71,5.71,0,0,1,4.3,1.67,7.43,7.43,0,0,1,0,9.25,5.65,5.65,0,0,1-4.28,1.67,5.72,5.72,0,0,1-4.32-1.66A6.3,6.3,0,0,1,287.2,415.19Zm2.53-.08a4.53,4.53,0,0,0,1,3.13,3.11,3.11,0,0,0,2.42,1.07,3.06,3.06,0,0,0,2.41-1.06,5.77,5.77,0,0,0,0-6.3,3.42,3.42,0,0,0-4.89,0A4.58,4.58,0,0,0,289.73,415.11Z"/><path class="cls-1" d="M300.3,417.24l2.39-.23a3,3,0,0,0,.88,1.77,2.67,2.67,0,0,0,1.78.56,2.71,2.71,0,0,0,1.79-.5,1.49,1.49,0,0,0,.6-1.17,1.16,1.16,0,0,0-.25-.74,2.09,2.09,0,0,0-.89-.53c-.29-.1-.94-.27-2-.53a6.69,6.69,0,0,1-2.77-1.2,3.19,3.19,0,0,1-.59-4.19,3.28,3.28,0,0,1,1.52-1.23,6.11,6.11,0,0,1,2.39-.43,5.13,5.13,0,0,1,3.45,1,3.55,3.55,0,0,1,1.22,2.68l-2.46.11a2,2,0,0,0-.68-1.35,2.47,2.47,0,0,0-1.55-.41,2.82,2.82,0,0,0-1.68.44.89.89,0,0,0-.39.75.91.91,0,0,0,.37.74,6.58,6.58,0,0,0,2.25.82,12.07,12.07,0,0,1,2.66.87,3.42,3.42,0,0,1,1.34,1.24,3.65,3.65,0,0,1,.49,1.94,3.6,3.6,0,0,1-.59,2A3.43,3.43,0,0,1,308,421a6.82,6.82,0,0,1-2.65.45,5.25,5.25,0,0,1-3.54-1.07A4.62,4.62,0,0,1,300.3,417.24Z"/><g class="cls-2"><circle class="cls-3" cx="404.94" cy="402.77" r="69.64"/></g><g class="cls-2"><circle class="cls-3" cx="936.08" cy="288.06" r="71.35"/></g><g class="cls-4"><circle class="cls-3" cx="946" cy="289.71" r="48.58"/></g><g class="cls-4"><circle class="cls-3" cx="956.2" cy="293.92" r="28.84"/></g><g class="cls-2"><circle class="cls-3" cx="623.08" cy="231.06" r="98.35"/></g><g class="cls-2"><circle class="cls-3" cx="741.92" cy="429.9" r="51.5"/></g><g class="cls-2"><circle class="cls-3" cx="297.92" cy="276.9" r="51.5"/></g><g class="cls-2"><circle class="cls-3" cx="391.92" cy="175.9" r="36.5"/></g><g class="cls-4"><circle class="cls-3" cx="627.94" cy="216.77" r="69.64"/></g><g class="cls-2"><circle class="cls-3" cx="154.08" cy="283.06" r="24.35"/></g><g class="cls-4"><circle class="cls-3" cx="154.28" cy="283.52" r="17.24"/></g><g class="cls-4"><circle class="cls-3" cx="404.94" cy="402.77" r="41.64"/></g><g class="cls-4"><circle class="cls-3" cx="623.2" cy="182.92" r="28.84"/></g><g class="cls-5"><circle class="cls-3" cx="623.39" cy="172.1" r="18.03"/></g><g class="cls-2"><circle class="cls-3" cx="621.58" cy="461.56" r="73.85"/></g><g class="cls-4"><circle class="cls-3" cx="625.23" cy="450.83" r="52.29"/></g><g class="cls-4"><circle class="cls-3" cx="625.67" cy="447.41" r="21.66"/></g><g class="cls-5"><circle class="cls-3" cx="625.81" cy="447.29" r="13.54"/></g></g></svg>